<?xml version="1.0" standalone="no"?>
<!DOCTYPE svg PUBLIC "-//W3C//DTD SVG 1.1//EN" "http://www.w3.org/Graphics/SVG/1.1/DTD/svg11.dtd" >
<!--
2013-9-30: Created.
-->
<svg>
<metadata>
Created by iconfont
</metadata>
<defs>

<font id="iconfont" horiz-adv-x="1024" >
  <font-face
    font-family="iconfont"
    font-weight="500"
    font-stretch="normal"
    units-per-em="1024"
    ascent="896"
    descent="-128"
  />
    <missing-glyph />
    
    <glyph glyph-name="mensuo" unicode="&#58902;" d="M511.8-34.5c-131.6 0-238.6 107-238.6 238.6V544.9c0 131.6 107 238.6 238.6 238.6s238.6-107 238.6-238.6v-340.8c0-131.6-107-238.6-238.6-238.6z m0 761.2c-100.2 0-181.8-81.5-181.8-181.8v-340.8c0-100.2 81.5-181.8 181.8-181.8s181.8 81.5 181.8 181.8V544.9c0 100.2-81.5 181.8-181.8 181.8zM520.4 109.1c-48.6 0-88 39.5-88 88s39.5 88 88 88 88-39.5 88-88-39.5-88-88-88z m0 119.3c-17.2 0-31.2-14-31.2-31.2s14-31.2 31.2-31.2 31.2 14 31.2 31.2-14 31.2-31.2 31.2zM918.9 479.2H516.5c-15.7 0-28.4 12.7-28.4 28.4s12.7 28.4 28.4 28.4h402.4c15.7 0 28.4-12.7 28.4-28.4s-12.7-28.4-28.4-28.4zM514.7 478.3c-15.7 0-28.4 12.7-28.4 28.4v79.5c0 15.7 12.7 28.4 28.4 28.4s28.4-12.7 28.4-28.4v-79.5c0-15.7-12.7-28.4-28.4-28.4z"  horiz-adv-x="1024" />

    
    <glyph glyph-name="jinghuaqi" unicode="&#58903;" d="M716 89.6H327.5c-38.5 0-69.8 31.3-69.8 69.8V718.5c0 38.5 31.3 69.8 69.8 69.8H716c38.5 0 69.8-31.3 69.8-69.8v-559.1c0-38.5-31.4-69.8-69.8-69.8zM327.5 742.9c-13.4 0-24.4-10.9-24.4-24.4v-559.1c0-13.4 10.9-24.4 24.4-24.4H716c13.4 0 24.4 10.9 24.4 24.4V718.5c0 13.4-10.9 24.4-24.4 24.4H327.5zM463.5 485.3c-56.4 0-102.2 45.9-102.2 102.2s45.9 102.2 102.2 102.2S565.7 644 565.7 587.6s-45.9-102.3-102.2-102.3z m0 159.1c-31.3 0-56.8-25.5-56.8-56.8s25.5-56.8 56.8-56.8 56.8 25.5 56.8 56.8-25.5 56.8-56.8 56.8zM580 289c-6.6 0-13.2 0.5-19.7 1.4-66.8 9.6-105.4 65.2-107.1 67.6-7.1 10.4-4.4 24.5 6 31.6 10.3 7.1 24.4 4.4 31.5-5.9 0.6-0.9 29.9-41.9 76.4-48.4 31.1-4.3 64.3 7.6 98.5 35.4 8.6 8.3 74.5 68.3 152.5 60.1 47.3-5 88.2-33.4 121.6-84.5 6.9-10.5 3.9-24.6-6.6-31.5-10.5-6.9-24.6-3.9-31.5 6.6-25.6 39.1-55.3 60.7-88.4 64.2-60.9 6.4-116.1-47.5-116.6-48s-1-1-1.6-1.4c-38.1-31.4-76.8-47.2-115-47.2zM521.7-14.5c-12.5 0-22.7 10.2-22.7 22.7v98.5c0 12.5 10.2 22.7 22.7 22.7s22.7-10.2 22.7-22.7v-98.5c0.1-12.6-10.1-22.7-22.7-22.7zM776.9-29.7H266.6c-12.5 0-22.7 10.2-22.7 22.7s10.2 22.7 22.7 22.7h510.2c12.5 0 22.7-10.2 22.7-22.7s-10.1-22.7-22.6-22.7z"  horiz-adv-x="1024" />

    
    <glyph glyph-name="jiashiqi" unicode="&#58904;" d="M705.5 87.8H321.2c-33 0-59.8 26.8-59.8 59.8V727.2c0 33 26.8 59.8 59.8 59.8h384.3c33 0 59.8-26.8 59.8-59.8v-579.6c0-33-26.8-59.8-59.8-59.8zM321.2 743.2c-8.8 0-16-7.2-16-16v-579.6c0-8.8 7.2-16 16-16h384.3c8.7 0 16 7.3 16 16V727.2c0 8.8-7.2 16-16 16H321.2zM562.5 607H464c-12.5 0-22.7 10.2-22.7 22.7s10.2 22.7 22.7 22.7h98.5c12.5 0 22.7-10.2 22.7-22.7S575.1 607 562.5 607zM513.3 182c-62.6 0-113.5 50.9-113.5 113.5S450.7 409 513.3 409s113.5-50.9 113.5-113.5S575.9 182 513.3 182z m0 189.6c-42 0-76.2-34.2-76.2-76.2s34.2-76.2 76.2-76.2 76.2 34.2 76.2 76.2c0 42.1-34.2 76.2-76.2 76.2zM513 266.2c-3.5 0-7.1 0.7-10.5 2-14.6 5.8-21.6 22.4-15.8 36.9l0.7 1.8c5.8 14.6 22.3 21.7 36.9 15.8 14.6-5.8 21.6-22.4 15.8-36.9l-0.7-1.8c-4.5-11.1-15.2-17.8-26.4-17.8zM411.1-23.5H255.8c-12.5 0-22.7 10.2-22.7 22.7s10.2 22.7 22.7 22.7h132.5v85.7c0 12.5 10.2 22.7 22.7 22.7s22.7-10.2 22.7-22.7v-108.4c0.1-12.5-10.1-22.7-22.6-22.7zM770.8-23.5H615.6c-12.5 0-22.7 10.2-22.7 22.7V107.6c0 12.5 10.2 22.7 22.7 22.7s22.7-10.2 22.7-22.7v-85.7h132.5c12.5 0 22.7-10.2 22.7-22.7s-10.1-22.7-22.7-22.7z"  horiz-adv-x="1024" />

    
    <glyph glyph-name="matong" unicode="&#58905;" d="M659.4 216.2H353.7c-12.5 0-22.7 10.2-22.7 22.7s10.2 22.7 22.7 22.7h305.7c12.5 0 22.7-10.2 22.7-22.7s-10.1-22.7-22.7-22.7zM505.4-46h-97.6c-6.7 0-13.1 3-17.4 8.1-4.3 5.2-6.1 12-4.9 18.6l28 155.1c-146.1 86.7-118.6 189.9-117.4 194.4 2.8 9.7 11.7 16.5 21.8 16.5h159.3c12.5 0 22.7-10.2 22.7-22.7s-10.2-22.7-22.7-22.7H338.6c1.2-26.9 16.5-82.3 110.9-133.6 8.6-4.7 13.2-14.4 11.5-24l-26-144.2h70.4c12.5 0 22.7-10.2 22.7-22.7S518-46 505.4-46zM605.3-46h-97.6c-12.5 0-22.7 10.2-22.7 22.7s10.2 22.7 22.7 22.7h70.4l-26 144.2c-1.7 9.6 2.9 19.3 11.5 24 94.7 51.5 109.9 106.8 111 133.6H500.3c-12.5 0-22.7 10.2-22.7 22.7s10.2 22.7 22.7 22.7h194.9c10.1 0 19.1-6.7 21.8-16.5 1.3-4.5 28.8-107.7-117.4-194.4l28-155.1c1.2-6.6-0.6-13.4-4.9-18.6-4.3-5-10.6-8-17.4-8zM500.3 301.3h-23.1c-12.5 0-22.7 10.2-22.7 22.7s10.2 22.7 22.7 22.7h23.1c12.5 0 22.7-10.2 22.7-22.7s-10.2-22.7-22.7-22.7zM382.9 300.3c-6.4 0-12.8 2.7-17.3 8-47.5 55.8-77 145.2-77 233.3 0 164.6 97.8 298.6 217.9 298.6 120.2 0 217.9-133.9 217.9-298.6 0-90.8-29.4-175.4-80.5-232.2-8.4-9.3-22.8-10.1-32.1-1.7s-10.1 22.8-1.7 32.1C653.9 388.4 679 462 679 541.6c0 139.6-77.4 253.1-172.5 253.1S334 681.1 334 541.6c0-77.8 25.3-156 66.1-203.9 8.1-9.6 7-23.9-2.6-32-4.1-3.6-9.4-5.4-14.6-5.4z"  horiz-adv-x="1024" />

    
    <glyph glyph-name="bingxiang" unicode="&#58906;" d="M708.1-44.1H312.8c-35 0-63.5 28.5-63.5 63.5V732.7c0 35 28.5 63.5 63.5 63.5H708c35 0 63.5-28.5 63.5-63.5v-713.3c0.1-35-28.4-63.5-63.4-63.5zM312.8 751.2c-10.2 0-18.4-8.3-18.4-18.4v-713.3c0-10.2 8.3-18.4 18.4-18.4H708c10.2 0 18.4 8.3 18.4 18.4V732.7c0 10.2-8.3 18.4-18.4 18.4H312.8zM749 481.5H271.9c-12.3 0-22.3 10-22.3 22.3s10 22.3 22.3 22.3H749c12.3 0 22.3-10 22.3-22.3 0.1-12.3-9.9-22.3-22.3-22.3zM354.2 580.5c-12.5 0-22.7 10.2-22.7 22.7v65.3c0 12.5 10.2 22.7 22.7 22.7s22.7-10.2 22.7-22.7v-65.3c0.1-12.5-10.1-22.7-22.7-22.7zM351.4 245.4c-12.5 0-22.7 10.2-22.7 22.7V424.3c0 12.5 10.2 22.7 22.7 22.7s22.7-10.2 22.7-22.7v-156.2c0-12.5-10.2-22.7-22.7-22.7z"  horiz-adv-x="1024" />

    
    <glyph glyph-name="youyanji" unicode="&#58907;" d="M866.6 4.4H157.4c-36.2 0-65.7 30.6-65.7 68.2V242.9c0 12.5 10.2 22.7 22.7 22.7s22.7-10.2 22.7-22.7v-170.4c0-12.3 9.3-22.7 20.3-22.7h709.3c11 0 20.3 10.4 20.3 22.7V231.6c0 12.5 10.2 22.7 22.7 22.7s22.7-10.2 22.7-22.7v-159.1c0-37.6-29.5-68.1-65.8-68.1zM909.6 222.1H114.4c-12.5 0-22.7 10.2-22.7 22.7s10.2 22.7 22.7 22.7h795.3c12.5 0 22.7-10.2 22.7-22.7s-10.2-22.7-22.8-22.7zM909.6 220.9c-5.5 0-10.9 2-15.3 5.9l-290.4 264c-4.7 4.3-7.4 10.4-7.4 16.8V738.9c0 15.6-15.8 28.9-34.6 28.9h-107c-18.8 0-34.6-13.2-34.6-28.9V505c0-6.4-2.7-12.6-7.5-16.9L129.6 233.4c-9.3-8.4-23.7-7.6-32.1 1.7-8.4 9.3-7.6 23.7 1.7 32.1l275.6 248V738.9c0 41 35.9 74.3 80.1 74.3h107c44.1 0 80.1-33.3 80.1-74.3v-221.2l283-257.2c9.3-8.4 10-22.8 1.5-32.1-4.5-5-10.7-7.5-16.9-7.5zM623.6 106.1c-3.5 0-7.1 0.7-10.6 2.1l-1.7 0.7c-14.6 5.9-21.6 22.4-15.7 37 5.9 14.6 22.4 21.6 37 15.7l1.7-0.7c14.6-5.9 21.6-22.4 15.7-37-4.5-11.1-15.1-17.8-26.4-17.8zM708.5 106.1c-3.5 0-7.1 0.7-10.6 2.1l-1.7 0.7c-14.6 5.9-21.6 22.4-15.7 37 5.9 14.6 22.4 21.6 37 15.7l1.7-0.7c14.6-5.9 21.6-22.4 15.7-37-4.5-11.1-15.1-17.8-26.4-17.8zM793.5 106.1c-3.5 0-7.1 0.7-10.6 2.1l-1.7 0.7c-14.6 5.9-21.6 22.4-15.7 37 5.9 14.6 22.4 21.6 37 15.7l1.7-0.7c14.6-5.9 21.6-22.4 15.7-37-4.5-11.1-15.2-17.8-26.4-17.8z"  horiz-adv-x="1024" />

    
    <glyph glyph-name="weibolu" unicode="&#58908;" d="M888.2 73.8H131.6c-34.8 0-63 28.3-63 63v484c0 34.8 28.3 63 63 63h756.7c34.8 0 63-28.3 63-63v-484c0-34.8-28.3-63-63.1-63z m-756.6 568c-11.6 0-21-9.4-21-21v-484c0-11.6 9.4-21 21-21h756.7c11.6 0 21 9.4 21 21v484c0 11.6-9.4 21-21 21H131.6zM539.8 207.5H209.2c-23 0-41.7 18.7-41.7 41.7V508.4c0 23 18.7 41.7 41.7 41.7h330.6c23 0 41.7-18.7 41.7-41.7v-259.2c0-23-18.7-41.7-41.7-41.7z m-329.4 42.8h328.3V507.2H210.4v-256.9zM664.8 73.6c-11.7 0-21.1 9.5-21.1 21.1v568c0 11.7 9.5 21.1 21.1 21.1 11.7 0 21.1-9.5 21.1-21.1v-568c0-11.6-9.4-21.1-21.1-21.1zM930.3 471H676.5c-11.8 0-21.4 9.6-21.4 21.4 0 11.8 9.6 21.4 21.4 21.4h253.7c11.8 0 21.4-9.6 21.4-21.4 0.1-11.8-9.5-21.4-21.3-21.4zM803 154.2c-3.5 0-7.1 0.7-10.5 2-14.6 5.8-21.6 22.4-15.8 36.9l0.7 1.8c5.8 14.6 22.3 21.7 36.9 15.8 14.6-5.8 21.6-22.4 15.8-36.9l-0.7-1.8c-4.4-11.1-15.1-17.8-26.4-17.8zM803 265.8c-3.5 0-7.1 0.7-10.5 2-14.6 5.8-21.6 22.4-15.8 36.9l0.7 1.8c5.8 14.6 22.3 21.7 36.9 15.8 14.6-5.8 21.6-22.4 15.8-36.9l-0.7-1.8c-4.4-11-15.1-17.8-26.4-17.8z"  horiz-adv-x="1024" />

    
    <glyph glyph-name="chuanglian" unicode="&#58909;" d="M694.7 307.4H344.4c-12.5 0-22.7 10.2-22.7 22.7s10.2 22.7 22.7 22.7h350.3c12.5 0 22.7-10.2 22.7-22.7s-10.1-22.7-22.7-22.7zM519.6 327.3c-12.5 0-22.7 10.2-22.7 22.7V739.2c0 12.5 10.2 22.7 22.7 22.7s22.7-10.2 22.7-22.7V350c0-12.5-10.2-22.7-22.7-22.7zM792.2 76.1H246.9c-29.2 0-53 23.8-53 53V714.9c0 29.2 23.8 53 53 53h545.3c29.2 0 53-23.8 53-53v-585.7c0-29.3-23.7-53.1-53-53.1zM246.9 722.4c-4.1 0-7.6-3.5-7.6-7.6v-585.7c0-4.1 3.5-7.6 7.6-7.6h545.3c4.1 0 7.6 3.5 7.6 7.6V714.9c0 4.1-3.5 7.6-7.6 7.6H246.9zM750.5 10.5c-10 0-19 6.8-21.4 17-39.4 167.8-34.1 283.2 16 343 4.3 5.1 8.7 9.6 13.2 13.5-132.1 63.1-150.4 254.1-139.2 358.2 1.3 12.1 12.1 20.8 24.3 19.5 12.1-1.3 20.8-12.2 19.6-24.3-0.3-3-29.8-300.2 162.8-328 11.7-1.7 19.9-12.2 18.8-24-1.2-11.7-11.5-20.4-23.1-19.8-0.5-0.3-23.7 0.1-43.5-24.5-22.4-27.7-52.9-103.9-6-303.5 2.8-11.8-4.6-23.7-16.4-26.5-1.7-0.4-3.4-0.6-5.1-0.6zM286.5 10.5c-1.7 0-3.4 0.2-5.1 0.6-11.8 2.8-19.2 14.6-16.4 26.5 47.3 201.4 16 277.3-6.9 304.6-19.6 23.5-42.2 23.4-42.6 23.3-11.6-0.6-22 8.1-23.1 19.8-1.2 11.7 7.1 22.3 18.8 24 192.7 27.8 163.2 325 162.8 328-1.3 12.1 7.5 23 19.6 24.3 12.1 1.2 23-7.4 24.3-19.5 11.3-104-7-295.1-139.2-358.2 4.5-3.9 9-8.4 13.2-13.5 50.1-59.8 55.4-175.2 16-343-2.4-10-11.4-16.9-21.4-16.9zM921.4 76.1H117.7c-12.5 0-22.7 10.2-22.7 22.7s10.2 22.7 22.7 22.7h803.8c12.5 0 22.7-10.2 22.7-22.7s-10.2-22.7-22.8-22.7z"  horiz-adv-x="1024" />

    
    <glyph glyph-name="dianfanbao" unicode="&#58910;" d="M212.3 410.1H93c-12.5 0-22.7 10.2-22.7 22.7s10.2 22.7 22.7 22.7h119.3c12.5 0 22.7-10.2 22.7-22.7s-10.1-22.7-22.7-22.7zM933.7 410.1H814.4c-12.5 0-22.7 10.2-22.7 22.7s10.2 22.7 22.7 22.7h119.3c12.5 0 22.7-10.2 22.7-22.7s-10.1-22.7-22.7-22.7zM707.1-2.7H320.8c-68.9 0-125 56.1-125 125v426c0 68.9 56.1 125 125 125h386.3c68.9 0 125-56.1 125-125v-426c-0.1-69-56.1-125-125-125zM320.8 627.8c-43.9 0-79.5-35.7-79.5-79.5v-426c0-43.9 35.7-79.5 79.5-79.5h386.3c43.9 0 79.5 35.7 79.5 79.5v426c0 43.9-35.7 79.5-79.5 79.5H320.8zM610.5 759.7H417.4c-12.5 0-22.7 10.2-22.7 22.7s10.2 22.7 22.7 22.7h193.1c12.5 0 22.7-10.2 22.7-22.7s-10.1-22.7-22.7-22.7zM513.9 633.5c-12.5 0-22.7 10.2-22.7 22.7v125c0 12.5 10.2 22.7 22.7 22.7s22.7-10.2 22.7-22.7v-125c0.1-12.5-10.1-22.7-22.7-22.7zM880.3 494.3H147.6c-12.5 0-22.7 10.2-22.7 22.7s10.2 22.7 22.7 22.7h732.8c12.5 0 22.7-10.2 22.7-22.7s-10.2-22.7-22.8-22.7zM513.9 99.5c-49.1 0-89 39.9-89 89s39.9 89 89 89 89-39.9 89-89c0-49-39.9-89-89-89z m0 132.6c-24 0-43.5-19.5-43.5-43.5s19.5-43.6 43.5-43.6 43.6 19.5 43.6 43.6c0 23.9-19.5 43.5-43.6 43.5z"  horiz-adv-x="1024" />

    
    <glyph glyph-name="diandeng" unicode="&#58911;" d="M860.8 190.2h-715c-8.4 0-16.2 4.7-20.1 12.1-3.9 7.5-3.4 16.5 1.4 23.4l197.8 288V635.2c0 25.8 21 46.8 46.8 46.8h263.2c25.8 0 46.8-21 46.8-46.8v-121.4l197.8-288c4.8-7 5.3-16 1.4-23.4-3.9-7.5-11.6-12.2-20.1-12.2zM189 235.7h628.6L640.3 493.9c-2.6 3.8-4 8.3-4 12.9V635.2c0 0.7-0.7 1.4-1.4 1.4H371.7c-0.7 0-1.4-0.7-1.4-1.4v-128.5c0-4.6-1.4-9.1-4-12.9L189 235.7zM656.9 483.7H349.7c-12.5 0-22.7 10.2-22.7 22.7s10.2 22.7 22.7 22.7h307.2c12.5 0 22.7-10.2 22.7-22.7s-10.1-22.7-22.7-22.7zM499 27.5c-79.1 0-150 53.7-165.8 130.9-8.5 41.5 0 83.9 23.8 119.4 25.2 37.4 64.1 62.8 109.7 71.3 91.2 17 180.1-40.4 198-127.9 8.5-41.5 0-83.9-23.8-119.4-25.2-37.4-64.1-62.8-109.7-71.3-10.7-2-21.5-3-32.2-3z m0.1 280.1c-8 0-16.1-0.7-24.2-2.2-33.8-6.3-62.5-24.9-81-52.4-17.2-25.5-23.3-56-17.2-85.7 13.1-64 78.8-105.7 146.4-93.2 33.8 6.3 62.5 24.9 81 52.4 17.2 25.5 23.3 56 17.2 85.7-11.5 56.3-63.7 95.4-122.2 95.4zM503.3 636.6c-12.5 0-22.7 10.2-22.7 22.7V815.2c0 12.5 10.2 22.7 22.7 22.7S526 827.7 526 815.2v-155.9c0-12.6-10.1-22.7-22.7-22.7z"  horiz-adv-x="1024" />

    
    <glyph glyph-name="yugang" unicode="&#58912;" d="M915 325.8H102.7C90.2 325.8 80 336 80 348.5s10.2 22.7 22.7 22.7H915c12.5 0 22.7-10.2 22.7-22.7s-10.1-22.7-22.7-22.7zM266 326.7c-12.5 0-22.7 10.2-22.7 22.7V699.5c0 35.7 29 64.7 64.7 64.7h126c35.7 0 64.7-29 64.7-64.7v-37.6c0-12.5-10.2-22.7-22.7-22.7s-22.7 10.2-22.7 22.7v37.6c0 10.6-8.7 19.3-19.3 19.3H308c-10.6 0-19.3-8.7-19.3-19.3v-350.1c0-12.6-10.2-22.7-22.7-22.7zM525.1 618.1h-99.8c-12.5 0-22.7 10.2-22.7 22.7s10.2 22.7 22.7 22.7h99.8c12.5 0 22.7-10.2 22.7-22.7s-10.2-22.7-22.7-22.7zM697.9 63.2H319.8C226.2 63.2 150 139.3 150 233V394c0 93.6 76.2 169.8 169.8 169.8H698c93.6 0 169.8-76.2 169.8-169.8v-161c-0.1-93.7-76.2-169.8-169.9-169.8zM319.8 518.4c-68.6 0-124.3-55.8-124.3-124.3V233c0-68.6 55.8-124.3 124.3-124.3H698c68.6 0 124.3 55.8 124.3 124.3V394c0 68.6-55.8 124.3-124.3 124.3H319.8zM333.4-1.6c-12.5 0-22.7 10.2-22.7 22.7v63c0 12.5 10.2 22.7 22.7 22.7s22.7-10.2 22.7-22.7v-63c0-12.5-10.2-22.7-22.7-22.7zM687.9-1.6c-12.5 0-22.7 10.2-22.7 22.7v63c0 12.5 10.2 22.7 22.7 22.7s22.7-10.2 22.7-22.7v-63c0-12.5-10.2-22.7-22.7-22.7z"  horiz-adv-x="1024" />

    
    <glyph glyph-name="yinxiang" unicode="&#58913;" d="M799.9 22.7H226.4c-34.5 0-62.6 28.1-62.6 62.6V668.8c0 34.5 28.1 62.6 62.6 62.6h573.5c34.5 0 62.6-28.1 62.6-62.6v-583.4c0-34.6-28.1-62.7-62.6-62.7zM226.4 685.9c-9.5 0-17.2-7.7-17.2-17.2v-583.4c0-9.5 7.7-17.2 17.2-17.2h573.5c9.5 0 17.2 7.7 17.2 17.2V668.8c0 9.5-7.7 17.2-17.2 17.2H226.4zM393.6 377.3c-76.2 0-138.2 62-138.2 138.2 0 76.2 62 138.2 138.2 138.2 76.2 0 138.2-62 138.2-138.2 0.1-76.2-62-138.2-138.2-138.2z m0 231c-51.2 0-92.8-41.6-92.8-92.8 0-51.2 41.6-92.8 92.8-92.8 51.2 0 92.8 41.6 92.8 92.8 0 51.2-41.6 92.8-92.8 92.8zM672.9 421.8c-51.7 0-93.7 42-93.7 93.7s42 93.7 93.7 93.7 93.7-42 93.7-93.7-42-93.7-93.7-93.7z m0 142c-26.6 0-48.3-21.7-48.3-48.3s21.7-48.3 48.3-48.3 48.3 21.7 48.3 48.3-21.7 48.3-48.3 48.3zM393.6 377.3c-76.2 0-138.2 62-138.2 138.2 0 76.2 62 138.2 138.2 138.2 76.2 0 138.2-62 138.2-138.2 0.1-76.2-62-138.2-138.2-138.2z m0 231c-51.2 0-92.8-41.6-92.8-92.8 0-51.2 41.6-92.8 92.8-92.8 51.2 0 92.8 41.6 92.8 92.8 0 51.2-41.6 92.8-92.8 92.8zM672.9 421.8c-51.7 0-93.7 42-93.7 93.7s42 93.7 93.7 93.7 93.7-42 93.7-93.7-42-93.7-93.7-93.7z m0 142c-26.6 0-48.3-21.7-48.3-48.3s21.7-48.3 48.3-48.3 48.3 21.7 48.3 48.3-21.7 48.3-48.3 48.3zM633.4 84.3c-76.2 0-138.2 62-138.2 138.2 0 76.2 62 138.2 138.2 138.2s138.2-62 138.2-138.2c0-76.1-62-138.2-138.2-138.2z m0 231.1c-51.2 0-92.8-41.6-92.8-92.8 0-51.2 41.6-92.8 92.8-92.8s92.8 41.6 92.8 92.8c0 51.1-41.6 92.8-92.8 92.8zM354.1 128.8c-51.7 0-93.7 42-93.7 93.7s42 93.7 93.7 93.7 93.7-42 93.7-93.7-42-93.7-93.7-93.7z m0 142.1c-26.6 0-48.3-21.7-48.3-48.3s21.7-48.3 48.3-48.3 48.3 21.7 48.3 48.3-21.7 48.3-48.3 48.3z"  horiz-adv-x="1024" />

    
    <glyph glyph-name="wenduji" unicode="&#58914;" d="M721.6 700h-64.4c-12.5 0-22.7 10.2-22.7 22.7s10.2 22.7 22.7 22.7h64.4c12.5 0 22.7-10.2 22.7-22.7S734.1 700 721.6 700zM721.6 636h-64.4c-12.5 0-22.7 10.2-22.7 22.7s10.2 22.7 22.7 22.7h64.4c12.5 0 22.7-10.2 22.7-22.7S734.1 636 721.6 636zM492.1-35.6C395.5-35.6 317 43 317 139.5c0 51.8 22.3 99.7 61.5 133.1V708.5c0 62.6 51 113.6 113.6 113.6s113.6-51 113.6-113.6v-435.9c39.3-33.4 61.5-81.3 61.5-133.1 0.1-96.5-78.5-175.1-175.1-175.1z m0 812.3c-37.6 0-68.2-30.6-68.2-68.2v-458.2l-9.1-6.8c-33.3-24.8-52.4-62.7-52.4-103.9 0-71.5 58.2-129.7 129.7-129.7 71.5 0 129.7 58.2 129.7 129.7 0 41.2-19.1 79.1-52.4 103.9l-9.1 6.8V708.5c0 37.6-30.6 68.2-68.2 68.2zM494 190.7c-12.5 0-22.7 10.2-22.7 22.7V633.7c0 12.5 10.2 22.7 22.7 22.7s22.7-10.2 22.7-22.7v-420.4c0-12.5-10.1-22.6-22.7-22.6zM721.6 572h-64.4c-12.5 0-22.7 10.2-22.7 22.7s10.2 22.7 22.7 22.7h64.4c12.5 0 22.7-10.2 22.7-22.7S734.1 572 721.6 572zM721.6 508h-64.4c-12.5 0-22.7 10.2-22.7 22.7s10.2 22.7 22.7 22.7h64.4c12.5 0 22.7-10.2 22.7-22.7S734.1 508 721.6 508zM721.6 444h-64.4c-12.5 0-22.7 10.2-22.7 22.7s10.2 22.7 22.7 22.7h64.4c12.5 0 22.7-10.2 22.7-22.7S734.1 444 721.6 444zM721.6 380h-64.4c-12.5 0-22.7 10.2-22.7 22.7s10.2 22.7 22.7 22.7h64.4c12.5 0 22.7-10.2 22.7-22.7S734.1 380 721.6 380z"  horiz-adv-x="1024" />

    
    <glyph glyph-name="kongtiao" unicode="&#58915;" d="M856.9 235.7h-683c-33.9 0-61.5 27.6-61.5 61.5V578.3c0 33.9 27.6 61.5 61.5 61.5h683c33.9 0 61.5-27.6 61.5-61.5v-281.1c0.1-33.9-27.5-61.5-61.5-61.5z m-683 358.7c-8.9 0-16.1-7.2-16.1-16.1v-281.1c0-8.9 7.2-16.1 16.1-16.1h683c8.9 0 16.1 7.2 16.1 16.1V578.3c0 8.9-7.2 16.1-16.1 16.1h-683zM775.1 235.7c-12.5 0-22.7 10.2-22.7 22.7V360.1c0 5.9-3.4 9.4-4.9 9.4H283.4c-1.5 0-4.9-3.6-4.9-9.4v-101.7c0-12.5-10.2-22.7-22.7-22.7S233 245.9 233 258.4V360.1c0 30.2 22.6 54.8 50.4 54.8h464.1c27.8 0 50.4-24.6 50.4-54.8v-101.7c-0.1-12.5-10.2-22.7-22.8-22.7zM605.8 465.5c-3.5 0-7 0.6-10.5 2l-1.7 0.7c-14.6 5.8-21.7 22.3-15.9 36.9 5.8 14.6 22.3 21.7 36.9 15.9l1.7-0.7c14.6-5.8 21.7-22.3 15.9-36.9-4.4-11.2-15.1-17.9-26.4-17.9zM691 465.5c-3.5 0-7 0.6-10.5 2l-1.7 0.7c-14.6 5.8-21.7 22.3-15.9 36.9 5.8 14.6 22.3 21.7 36.9 15.9l1.7-0.7c14.6-5.8 21.7-22.3 15.9-36.9-4.5-11.2-15.1-17.9-26.4-17.9zM776.1 465.5c-3.5 0-7 0.6-10.5 2l-1.7 0.7c-14.6 5.8-21.7 22.3-15.9 36.9 5.8 14.6 22.3 21.7 36.9 15.9l1.7-0.7c14.6-5.8 21.7-22.3 15.9-36.9-4.4-11.2-15.1-17.9-26.4-17.9zM316.4 22.6c-1.8 0-3.7 0.4-5.5 1.4-22 12.1-34.9 27.6-38.4 46-5.2 27.9 14 51.1 14.8 52.1 12.4 15.7 17.7 30.1 15.6 42.3-2.3 13.6-13.2 20.6-13.6 20.9-5.3 3.3-6.9 10.3-3.6 15.6 3.3 5.3 10.2 7 15.5 3.8 0.8-0.5 19.8-12.3 24.1-36 3.4-19-3.4-39.6-20.3-61-0.3-0.4-13.4-16.4-10.1-33.7 2.2-11.4 11.2-21.5 26.9-30.1 5.5-3 7.5-9.9 4.5-15.4-2-3.8-5.8-5.9-9.9-5.9zM376.1 22.6c-1.8 0-3.7 0.4-5.5 1.4-22 12.1-34.9 27.6-38.4 46-5.2 27.9 14 51.1 14.8 52.1 12.4 15.7 17.7 30.1 15.6 42.3-2.3 13.6-13.2 20.6-13.6 20.9-5.3 3.3-6.9 10.3-3.6 15.6 3.3 5.3 10.2 7 15.5 3.8 0.8-0.5 19.8-12.3 24.1-36 3.4-19-3.4-39.6-20.3-61-0.3-0.4-13.4-16.4-10.1-33.7 2.2-11.4 11.2-21.5 26.9-30.1 5.5-3 7.5-9.9 4.5-15.4-2-3.8-5.9-5.9-9.9-5.9zM435.7 22.6c-1.8 0-3.7 0.4-5.5 1.4-22 12.1-34.9 27.6-38.4 46-5.2 27.9 14 51.1 14.8 52.1 12.4 15.7 17.7 30.1 15.6 42.3-2.3 13.6-13.2 20.6-13.6 20.9-5.3 3.3-6.9 10.3-3.6 15.6 3.3 5.3 10.2 7 15.5 3.8 0.8-0.5 19.8-12.3 24.1-36 3.4-19-3.4-39.6-20.3-61-0.3-0.4-13.4-16.4-10.1-33.7 2.2-11.4 11.2-21.5 26.9-30.1 5.5-3 7.5-9.9 4.5-15.4-2-3.8-5.9-5.9-9.9-5.9zM784.6 96.3h-170c-6.3 0-11.4 5.1-11.4 11.4s5.1 11.4 11.4 11.4h170c6.3 0 11.4-5.1 11.4-11.4s-5.1-11.4-11.4-11.4zM699.6 11.3c-6.3 0-11.4 5.1-11.4 11.4v170c0 6.3 5.1 11.4 11.4 11.4 6.3 0 11.4-5.1 11.4-11.4v-170c-0.1-6.3-5.2-11.4-11.4-11.4zM759.7 36.2c-2.9 0-5.8 1.1-8 3.3L631.4 159.7c-4.4 4.4-4.4 11.6 0 16.1s11.6 4.4 16.1 0l120.2-120.2c4.4-4.4 4.4-11.6 0-16.1-2.2-2.2-5.1-3.3-8-3.3zM639.5 36.2c-2.9 0-5.8 1.1-8 3.3-4.4 4.4-4.4 11.6 0 16.1l120.2 120.2c4.4 4.4 11.6 4.4 16.1 0s4.4-11.6 0-16.1L647.5 39.5c-2.2-2.2-5.1-3.3-8-3.3z"  horiz-adv-x="1024" />

    
    <glyph glyph-name="xiyiji" unicode="&#58916;" d="M786.3-6.8H227.2c-33.8 0-61.3 27.5-61.3 61.3v641c0 33.8 27.5 61.3 61.3 61.3h559.1c33.8 0 61.3-27.5 61.3-61.3v-641c0-33.8-27.5-61.3-61.3-61.3zM227.2 711.4c-8.6 0-15.8-7.3-15.8-15.8v-641c0-8.6 7.3-15.8 15.8-15.8h559.1c8.7 0 15.8 7.1 15.8 15.8v641c0 8.6-7.3 15.8-15.8 15.8H227.2zM824.9 525.6H188.7c-12.5 0-22.7 10.2-22.7 22.7s10.2 22.7 22.7 22.7h636.2c12.5 0 22.7-10.2 22.7-22.7 0-12.6-10.2-22.7-22.7-22.7zM404.6 624.1h-125c-12.5 0-22.7 10.2-22.7 22.7s10.2 22.7 22.7 22.7h125c12.5 0 22.7-10.2 22.7-22.7s-10.2-22.7-22.7-22.7zM585.3 618.1c-3.5 0-7.1 0.7-10.5 2l-1.8 0.7c-14.6 5.8-21.6 22.4-15.8 36.9 5.8 14.6 22.3 21.7 36.9 15.8l1.8-0.7c14.6-5.8 21.6-22.4 15.8-36.9-4.5-11-15.2-17.8-26.4-17.8zM671.6 618.1c-3.5 0-7.1 0.7-10.5 2l-1.8 0.7c-14.6 5.8-21.6 22.4-15.8 36.9 5.8 14.6 22.3 21.7 36.9 15.8l1.8-0.7c14.6-5.8 21.6-22.4 15.8-36.9-4.4-11-15.1-17.8-26.4-17.8zM506.8 128.9c-82.2 0-149.1 66.9-149.1 149.1s66.9 149.1 149.1 149.1S655.9 360.2 655.9 278 589 128.9 506.8 128.9z m0 252.8c-57.2 0-103.7-46.5-103.7-103.7s46.5-103.7 103.7-103.7S610.4 220.8 610.4 278s-46.5 103.7-103.6 103.7z"  horiz-adv-x="1024" />

    
    <glyph glyph-name="chujingdianyi" unicode="&#58917;" d="M550.7 14.4H288.6c-67.1 0-121.7 54.6-121.7 121.6V641.2c0 67.1 54.6 121.6 121.7 121.6h262.2c67.1 0 121.7-54.6 121.7-121.6V136c-0.1-67.1-54.7-121.6-121.8-121.6zM288.6 723.2c-45.2 0-82-36.8-82-81.9V136c0-45.2 36.8-81.9 82-81.9h262.2c45.2 0 82 36.8 82 81.9V641.2c0 45.2-36.8 81.9-82 81.9H288.6zM419.6 424.5c-66.8 0-121.1 54.3-121.1 121.1s54.3 121.1 121.1 121.1 121.1-54.3 121.1-121.1-54.3-121.1-121.1-121.1z m0 202.5c-44.9 0-81.4-36.5-81.4-81.4 0-44.9 36.5-81.4 81.4-81.4s81.4 36.5 81.4 81.4c0.1 44.8-36.5 81.4-81.4 81.4zM196.9 90.3c-10.7 0-19.5 8.5-19.8 19.3-0.3 10.9 8.3 20.1 19.3 20.4 348.6 9.6 433 152 433.8 153.5 5.3 9.5 17.4 13 26.9 7.7s13.1-17.2 7.9-26.8c-3.6-6.7-93.2-163.7-467.5-174.1h-0.6zM814.6 135.9c-38.8 0-70.5 31.6-70.5 70.5V570.9c0 38.9 31.6 70.5 70.5 70.5 38.8 0 70.5-31.6 70.5-70.5v-364.5c-0.1-38.9-31.7-70.5-70.5-70.5z m0 465.7c-17 0-30.8-13.8-30.8-30.8v-364.5c0-17 13.8-30.8 30.8-30.8s30.8 13.8 30.8 30.8V570.9c-0.1 16.9-13.9 30.7-30.8 30.7z"  horiz-adv-x="1024" />

    
    <glyph glyph-name="shafa" unicode="&#58918;" d="M733 503.9H309.3c-10.8 0-19.6 8.8-19.6 19.6s8.8 19.6 19.6 19.6H733c10.8 0 19.6-8.8 19.6-19.6s-8.8-19.6-19.6-19.6zM882.8 116.4H159.4c-10.8 0-19.6 8.8-19.6 19.6V613.1c0 46.9 38.1 85 85 85h17.8c46.9 0 85-38.1 85-85v-302.5h386.9V613.1c0 46.9 38.1 85 85 85h17.8c46.9 0 85-38.1 85-85V136c0.1-10.9-8.7-19.6-19.5-19.6zM179 155.6h684.2V613.1c0 25.3-20.5 45.8-45.8 45.8h-17.8c-25.3 0-45.8-20.6-45.8-45.8V291c0-10.8-8.8-19.6-19.6-19.6H308.1c-10.8 0-19.6 8.8-19.6 19.6V613.1c0 25.3-20.5 45.8-45.8 45.8h-17.8c-25.3 0-45.8-20.6-45.8-45.8v-457.5zM309.3 28.5c-10.8 0-19.6 8.8-19.6 19.6v77.5c0 10.8 8.8 19.6 19.6 19.6s19.6-8.8 19.6-19.6v-77.5c0-10.8-8.8-19.6-19.6-19.6zM733 28.5c-10.8 0-19.6 8.8-19.6 19.6v77.5c0 10.8 8.8 19.6 19.6 19.6s19.6-8.8 19.6-19.6v-77.5c0-10.8-8.8-19.6-19.6-19.6z"  horiz-adv-x="1024" />

    
    <glyph glyph-name="saodiji" unicode="&#58919;" d="M523.5-8.7c-215.8 0-391.4 175.6-391.4 391.4s175.6 391.4 391.4 391.4c215.8 0 391.4-175.6 391.4-391.4S739.3-8.7 523.5-8.7z m0 743.6c-194.2 0-352.2-158-352.2-352.2s158-352.2 352.2-352.2 352.2 158 352.2 352.2-158 352.2-352.2 352.2zM523.5 261.6c-66.8 0-121.1 54.3-121.1 121.1s54.3 121.1 121.1 121.1 121.1-54.3 121.1-121.1-54.3-121.1-121.1-121.1z m0 203c-45.2 0-81.9-36.7-81.9-81.9s36.7-81.9 81.9-81.9 81.9 36.7 81.9 81.9-36.7 81.9-81.9 81.9zM523.5 160.5c-62.4 0-122.6 26.1-165.3 71.5-38.4 40.9-59.7 93-61.2 148.4H153.7c-10.8 0-19.6 8.8-19.6 19.6s8.8 19.6 19.6 19.6H317c5.4 0 10.6-2.2 14.3-6.2s5.6-9.2 5.3-14.6c-3.3-52.3 14.6-102 50.3-140 35.8-38.1 84.4-59.1 136.7-59.1 52.3 0 100.9 21 136.7 59.1 35.7 38 53.6 87.7 50.4 140-0.3 5.4 1.6 10.7 5.3 14.6 3.7 3.9 8.9 6.2 14.3 6.2h165.3c10.8 0 19.6-8.8 19.6-19.6s-8.8-19.6-19.6-19.6H750c-1.5-55.5-22.9-107.6-61.3-148.5-42.6-45.4-102.8-71.4-165.2-71.4zM523.5 622m-23.3 0a23.3 23.3 0 1 1 46.6 0 23.3 23.3 0 1 1-46.6 0Z"  horiz-adv-x="1024" />

    
    <glyph glyph-name="fengshan" unicode="&#58920;" d="M430.6 122.3c-19.4 0-39.6 3.8-58.5 11.4-39.4 16-64.2 45.8-66.4 79.8-3.3 52.3 30.8 90 91.2 101.1 10.2 1.9 36.1 9.2 53.9 19.8-4.5 5.9-8.2 12.3-10.9 19.2-42.6-3.9-129.4-4.7-167 45.6-26 34.8-27.1 91.8-2.7 138.7 19.7 37.7 50.8 59.5 85.9 58.6 52.3-1.6 86.6-39.1 91.9-100.3 0.9-10.1 5.4-34.8 13.5-53.2 6.4 5.6 13.7 10.2 21.6 13.6-5 41.8-8.3 126.4 38.9 165 33.7 27.5 90.7 31 138.5 8.6 38.5-18 61.7-49.1 62.1-83.2 0.6-52.2-35.4-88.2-96.3-96.1-9.4-1.2-33.5-6.6-51.6-15.3 6.3-7.3 11.3-15.7 14.7-24.7 44.9 5.7 123.3 7.8 161-36.9 28-33.3 32.4-90.1 10.7-138.3-17.4-38.8-48.2-62.6-82.3-63.5-53.2-1.4-88.7 34-97.6 94.8-1.8 11.7-7.9 36.1-17.2 53.5-6.8-5.4-14.3-9.6-22.5-12.6 7.5-48.8 9.8-120.8-31.5-158.2-19.7-18-48.7-27.4-79.4-27.4zM500.5 332l-9.2-10.7c-26.2-30.5-86.9-42-87.5-42.1-24.6-4.5-64.9-18.6-62-63.4 1.8-28.6 31.3-43.6 43.9-48.7 36.2-14.6 78.2-10.8 100.2 9.1 35.5 32.3 22.3 116.6 17.4 141.7l-2.8 14.1z m177.8-141.9h0.4-0.4zM567.7 371l10.2-9.4c29.3-27 38.9-88.5 39-89.1 3.7-24.9 16.4-65.2 61-64.4 28.7 0.8 44.8 29.8 50.4 42.2 15.9 35.5 13.6 77.7-5.4 100.4-25.2 30-90.8 31.1-144 22.1l-11.2-1.8z m-99.2 20l2.4-15c1.8-11.4 8-21.5 17.4-28.5l13.6-10 17.1 1.8c12.9 1.4 24.4 8.3 31.7 19.1l9.2 13.7-2 16.4c-1.7 13.6-9.9 25.9-21.9 32.8l-13.9 7.9-15.7-3c-13.1-2.5-24.2-10.5-30.6-22.1l-7.3-13.1z m-115 169.6c-27.9 0-45.2-27.3-51.4-39.2-17.9-34.5-18.1-76.7-0.4-100.5 26.7-35.7 106.2-35.5 149-29.7l5.1 0.7-8.3 8c-29.4 28.2-35.4 92.4-35.4 93-2.1 24.9-12.4 66.3-57.1 67.7-0.6-0.1-1 0-1.5 0z m241 48.3c-19.4 0-37.4-5.1-49.8-15.2-31.2-25.5-32.4-95-23.9-146.8l1.3-7.6 10 10.3c27.7 28.6 88.7 37 89.3 37.1 24.8 3.2 65.7 15.3 65.2 60-0.3 28.7-29 45.2-41.4 51-16.3 7.4-34.1 11.2-50.7 11.2zM513.4-2.1c-211.7 0-383.9 172.2-383.9 383.9s172.2 383.9 383.9 383.9 383.9-172.2 383.9-383.9-172.2-383.9-383.9-383.9z m0 731.7c-191.8 0-347.8-156-347.8-347.8S321.6 34 513.4 34s347.8 156 347.8 347.8c0 191.7-156 347.8-347.8 347.8zM512.9 305c-43.4 0-78.6 35.3-78.6 78.6s35.3 78.6 78.6 78.6 78.6-35.3 78.6-78.6-35.3-78.6-78.6-78.6z m0 121.1c-23.5 0-42.5-19.1-42.5-42.5 0-23.5 19.1-42.5 42.5-42.5s42.5 19.1 42.5 42.5c0 23.5-19.1 42.5-42.5 42.5z"  horiz-adv-x="1024" />

    
    <glyph glyph-name="jiqiren" unicode="&#58921;" d="M832 56.1H203.3c-10.8 0-19.6 8.8-19.6 19.6V348.5c0 109.8 89.3 199.2 199.2 199.2h269.4c109.8 0 199.2-89.4 199.2-199.2v-272.8c0.1-10.8-8.7-19.6-19.5-19.6z m-609.1 39.2h589.5V348.5c0 88.2-71.8 160-160 160H382.9c-88.2 0-160-71.8-160-160v-253.2zM665.8 286.8H369.5c-33.1 0-60 26.9-60 60s26.9 60 60 60h296.4c33.1 0 60-26.9 60-60-0.1-33.1-27-60-60.1-60z m-296.3 80.8c-11.5 0-20.8-9.3-20.8-20.8S358 326 369.5 326h296.4c11.5 0 20.8 9.4 20.8 20.8 0 11.5-9.3 20.8-20.8 20.8H369.5zM192.1 165.6h-44.9c-15.8 0-28.6 12.8-28.6 28.6V284c0 15.8 12.8 28.6 28.6 28.6h44.9c10.8 0 19.6-8.8 19.6-19.6s-8.8-19.6-19.6-19.6h-34.3v-68.6h34.3c10.8 0 19.6-8.8 19.6-19.6s-8.8-19.6-19.6-19.6zM883.6 165.6h-44.9c-10.8 0-19.6 8.8-19.6 19.6s8.8 19.6 19.6 19.6H873v68.6h-34.3c-10.8 0-19.6 8.8-19.6 19.6s8.8 19.6 19.6 19.6h44.9c15.8 0 28.6-12.8 28.6-28.6v-89.8c0-15.8-12.8-28.6-28.6-28.6zM627.7 511.3c-4.4 0-8.9 1.5-12.6 4.6-8.3 6.9-9.4 19.3-2.4 27.6l139.2 166.1c6.9 8.3 19.3 9.4 27.6 2.4 8.3-6.9 9.4-19.3 2.4-27.6L642.7 518.3c-3.9-4.6-9.4-7-15-7zM403.1 511.3c-5.6 0-11.1 2.4-15 7L248.9 684.5c-7 8.3-5.9 20.7 2.4 27.6 8.3 7 20.6 5.9 27.6-2.4l139.2-166.1c7-8.3 5.9-20.7-2.4-27.6-3.6-3.2-8.1-4.7-12.6-4.7zM780.3 677.1c-23.4 0-42.5 19-42.5 42.5s19 42.5 42.5 42.5 42.5-19 42.5-42.5-19-42.5-42.5-42.5z m0 44.9c-1.4 0-2.5-1.1-2.5-2.5s1.1-2.5 2.5-2.5 2.5 1.1 2.5 2.5-1.1 2.5-2.5 2.5zM250.5 677.1c-23.4 0-42.5 19-42.5 42.5s19 42.5 42.5 42.5 42.5-19 42.5-42.5-19.1-42.5-42.5-42.5z m0 44.9c-1.4 0-2.5-1.1-2.5-2.5s1.1-2.5 2.5-2.5 2.5 1.1 2.5 2.5-1.2 2.5-2.5 2.5z"  horiz-adv-x="1024" />

    


  </font>
</defs>
</svg>
